<svg xmlns="http://www.w3.org/2000/svg" xmlns:svg="http://www.w3.org/2000/svg" id="svg9" width="20" height="20" fill="none" version="1.1" viewBox="0 0 20 20"><g id="g9" transform="translate(0.7158741,-0.307456)"><path id="path7" fill="#fff" d="m 12.821126,8.892686 c 0,2.99523 -2.42813,5.42337 -5.4233602,5.42337 -2.99523,0 -5.42334,-2.42814 -5.42334,-5.42337 0,-2.99523 2.42811,-5.42334 5.42334,-5.42334 2.9952302,0 5.4233602,2.42811 5.4233602,5.42334 z" style="fill:#000"/><path id="path8" fill="#fff" d="m 16.593826,4.412536 c 0,1.04182 -0.8445,1.88638 -1.8863,1.88638 -1.0419,0 -1.8864,-0.84456 -1.8864,-1.88638 0,-1.041819 0.8445,-1.88638 1.8864,-1.88638 1.0418,0 1.8863,0.844561 1.8863,1.88638 z" style="fill:#000"/><path id="path9" fill="#fff" d="m 16.593826,15.495056 c 0,1.4325 -1.1612,2.5937 -2.5937,2.5937 -1.4325,0 -2.5938,-1.1612 -2.5938,-2.5937 0,-1.4325 1.1613,-2.5938 2.5938,-2.5938 1.4325,0 2.5937,1.1613 2.5937,2.5938 z" style="fill:#000"/></g></svg>